<svg width="7" height="13" viewBox="0 0 7 13" fill="none" xmlns="http://www.w3.org/2000/svg">
<path d="M4.48879 3.43407C4.44315 2.82062 4.29168 2.41331 4.03438 2.21215C3.77627 2.00003 3.44455 1.90905 3.03923 1.9392L0.245823 2.14701L0.144361 0.783173L2.9542 0.574136C3.38143 0.542353 3.76344 0.569009 4.10023 0.654106C4.44715 0.727433 4.7446 0.87604 4.99258 1.09993C5.25069 1.31204 5.45426 1.60532 5.60328 1.97977C5.75231 2.35421 5.84801 2.82625 5.89039 3.39589C5.91239 3.69166 5.90415 3.95113 5.86568 4.1743C5.82721 4.39747 5.7656 4.60583 5.68087 4.79939C5.59613 4.99295 5.48908 5.18267 5.35971 5.36854C5.22952 5.54345 5.0892 5.73013 4.93873 5.92858C4.85762 6.02274 4.77184 6.12826 4.68139 6.24514C4.60191 6.3612 4.52161 6.46631 4.44049 6.56047C4.31356 6.7792 4.2128 6.97946 4.13821 7.16125C4.07456 7.34223 4.02776 7.52746 3.9978 7.71695C3.96702 7.89548 3.94801 8.08416 3.94077 8.28297C3.94448 8.48097 3.95531 8.70046 3.97323 8.94146L2.57653 9.04537C2.55126 8.70578 2.53474 8.4096 2.52695 8.15683C2.51916 7.90406 2.5345 7.66609 2.57297 7.44293C2.6224 7.21895 2.69881 6.98745 2.8022 6.74844C2.91572 6.49766 3.07528 6.19939 3.28088 5.85364L3.62825 5.41473C3.90039 5.07505 4.11979 4.76682 4.28646 4.49006C4.45232 4.20234 4.51976 3.85034 4.48879 3.43407ZM4.0478 9.94381L4.20428 12.0471L2.80757 12.151L2.6511 10.0477L4.0478 9.94381Z" fill="white"/>
</svg>
