<svg width="132" height="159" viewBox="0 0 132 159" fill="none" xmlns="http://www.w3.org/2000/svg">
<circle cx="66" cy="66" r="66" fill="#D9D9D9"/>
<circle cx="66.5" cy="45.5" r="20.5" fill="#959595"/>
<path d="M107 118.5C107 113.181 105.952 107.915 103.917 103.001C101.882 98.0876 98.8986 93.6229 95.1378 89.8622C91.3771 86.1014 86.9124 83.1182 81.9987 81.0829C77.085 79.0476 71.8185 78 66.5 78C61.1815 78 55.915 79.0476 51.0013 81.0829C46.0876 83.1182 41.6229 86.1014 37.8622 89.8622C34.1014 93.623 31.1182 98.0876 29.0829 103.001C27.0476 107.915 26 113.181 26 118.5L66.5 118.5H107Z" fill="#959595"/>
</svg>
